<svg xmlns="http://www.w3.org/2000/svg" viewBox="0 0 1600 1000" role="img" aria-labelledby="title desc">
  <title id="title">Карта архипелага BPMSoft Quest</title>
  <desc id="desc">Фэнтезийный архипелаг с городом, кузницей, цитаделью, механизмами и ареной.</desc>
  <defs>
    <filter id="paper" x="-10%" y="-10%" width="120%" height="120%">
      <feTurbulence type="fractalNoise" baseFrequency="0.7" numOctaves="2" seed="17" result="noise"/>
      <feColorMatrix in="noise" type="saturate" values="0" result="gray"/>
      <feComponentTransfer in="gray" result="faded">
        <feFuncA type="table" tableValues="0 0.08"/>
      </feComponentTransfer>
      <feBlend in="SourceGraphic" in2="faded" mode="multiply"/>
    </filter>
    <pattern id="waves" width="92" height="42" patternUnits="userSpaceOnUse">
      <path d="M0 20 Q23 4 46 20 T92 20" fill="none" stroke="#73a1a0" stroke-width="3" opacity="0.28"/>
      <path d="M0 32 Q23 16 46 32 T92 32" fill="none" stroke="#9ab8ad" stroke-width="2" opacity="0.2"/>
    </pattern>
  </defs>

  <rect width="1600" height="1000" fill="#173c42"/>
  <rect width="1600" height="1000" fill="url(#waves)"/>
  <g filter="url(#paper)">
    <path d="M87 184 C147 108 286 76 389 116 C469 147 512 212 486 298 C464 371 392 397 334 452 C270 512 142 509 79 430 C17 353 25 263 87 184Z" fill="#70865f" stroke="#d4bd7b" stroke-width="13"/>
    <path d="M474 89 C603 24 785 45 868 139 C914 191 920 270 872 323 C814 387 692 359 603 381 C526 401 444 347 431 270 C419 196 417 118 474 89Z" fill="#8a7759" stroke="#d4bd7b" stroke-width="13"/>
    <path d="M1004 135 C1128 73 1332 96 1437 185 C1512 249 1534 352 1481 432 C1423 518 1295 506 1199 488 C1106 471 993 477 935 396 C873 308 901 186 1004 135Z" fill="#687b67" stroke="#d4bd7b" stroke-width="13"/>
    <path d="M418 464 C513 410 684 420 784 479 C870 530 896 642 834 718 C767 802 637 784 524 804 C433 820 326 764 307 672 C288 581 342 507 418 464Z" fill="#657e67" stroke="#d4bd7b" stroke-width="13"/>
    <path d="M938 550 C1033 487 1171 507 1260 549 C1369 600 1460 700 1429 799 C1397 901 1270 946 1165 917 C1074 892 1013 824 921 786 C840 752 850 609 938 550Z" fill="#9a6655" stroke="#d4bd7b" stroke-width="13"/>
    <path d="M87 710 C163 647 290 660 358 733 C418 797 391 906 314 949 C234 994 111 965 58 890 C14 827 28 760 87 710Z" fill="#5f7980" stroke="#d4bd7b" stroke-width="13"/>
  </g>

  <g fill="none" stroke="#d8bd73" stroke-width="7" stroke-linecap="round" stroke-dasharray="5 18" opacity="0.78">
    <path d="M323 286 C457 226 607 201 756 218"/>
    <path d="M762 226 C949 204 1069 265 1196 341"/>
    <path d="M728 280 C687 408 649 516 651 602"/>
    <path d="M687 623 C856 649 1020 705 1162 760"/>
    <path d="M332 368 C297 517 245 673 218 797"/>
  </g>

  <g stroke="#273a33" stroke-width="8" stroke-linejoin="round">
    <g transform="translate(285 245)">
      <path d="M-82 68 L-82 -7 L-48 -31 L-17 -4 L12 -46 L46 -12 L82 -33 L82 68Z" fill="#c8b276"/>
      <path d="M-96 68 H96 V88 H-96Z" fill="#544f3f"/>
      <path d="M-50 68 V27 H-18 V68 M26 68 V13 H55 V68" fill="#315b59"/>
      <path d="M-16 -4 V-69 L12 -46" fill="none"/>
    </g>
    <g transform="translate(850 178)">
      <path d="M-89 69 L-52 -2 L-16 23 L17 -62 L51 18 L83 -8 L106 69Z" fill="#74685f"/>
      <path d="M-21 69 L11 15 L44 69Z" fill="#d0643f"/>
      <path d="M8 13 L19 -20 L31 14" fill="#f2b64d" stroke="#a54f39"/>
    </g>
    <g transform="translate(1205 336)">
      <path d="M-94 68 V-28 H-54 V-70 H-18 V-22 H22 V-82 H61 V-22 H91 V68Z" fill="#7e8f83"/>
      <path d="M-112 68 H111 V88 H-112Z" fill="#4d564f"/>
      <path d="M-62 17 H-25 V68 H-62Z M28 4 H64 V68 H28Z" fill="#344846"/>
    </g>
    <g transform="translate(690 607)">
      <circle cx="0" cy="0" r="79" fill="#5b716c"/>
      <circle cx="0" cy="0" r="42" fill="#d2aa55"/>
      <path d="M0 -112 V-77 M0 77 V112 M-112 0 H-77 M77 0 H112 M-80 -80 L-55 -55 M55 55 L80 80 M80 -80 L55 -55 M-55 55 L-80 80" fill="none"/>
      <circle cx="0" cy="0" r="13" fill="#2c4444"/>
    </g>
    <g transform="translate(1150 742)">
      <ellipse cx="0" cy="0" rx="117" ry="82" fill="#b06b54"/>
      <ellipse cx="0" cy="0" rx="76" ry="43" fill="#d4bd7b"/>
      <path d="M-112 -24 L-90 -72 L-63 -43 M112 -24 L90 -72 L63 -43 M-112 24 L-90 72 L-63 43 M112 24 L90 72 L63 43" fill="#7f4a44"/>
    </g>
    <g transform="translate(211 822)">
      <path d="M-123 44 H123 L89 83 H-92Z" fill="#51483c"/>
      <path d="M-72 43 V-40 H-14 V43 M22 43 V-10 H77 V43" fill="#708d94"/>
      <path d="M-15 -40 L-15 -92 L39 -55 L-15 -25" fill="#b95e4a"/>
      <path d="M-113 84 Q-50 123 10 86 T120 85" fill="none" stroke="#82a9a8"/>
    </g>
  </g>

  <g fill="#2d4f3e" opacity="0.9">
    <path d="M108 252 l25 -52 25 52 h-14 l18 38 h-58 l18 -38Z"/>
    <path d="M408 320 l22 -47 22 47 h-13 l17 34 h-52 l17 -34Z"/>
    <path d="M1028 270 l24 -51 24 51 h-14 l18 37 h-56 l17 -37Z"/>
    <path d="M1346 383 l23 -49 23 49 h-14 l18 35 h-54 l17 -35Z"/>
    <path d="M411 625 l24 -51 24 51 h-14 l18 37 h-56 l17 -37Z"/>
    <path d="M514 706 l20 -43 20 43 h-12 l15 31 h-47 l15 -31Z"/>
  </g>

  <g fill="#d4bd7b" opacity="0.74">
    <circle cx="523" cy="168" r="8"/><circle cx="966" cy="211" r="8"/><circle cx="872" cy="474" r="8"/><circle cx="882" cy="823" r="8"/>
  </g>
</svg>
